<svg version="1.1" id="Layer_1" xmlns="http://www.w3.org/2000/svg" x="0" y="0" width="320" height="35" viewBox="0 0 320 35" xml:space="preserve"><style type="text/css"><![CDATA[
	.st0{fill:#E2001A;}
	.st1{fill:#0189B4;}
]]></style><path class="st0" d="M30.1 33.7H21.6l-.1-.2-6.8-12.1h-7v12.4H0V1.3h16.8c7.8 0 11.5 3.2 11.5 9.9 0 4.8-2.2 8-6.1 9.1L29.6 33l.5.7zM7.6 14.8h7.6c4.1 0 5.4-.9 5.4-3.5 0-2.7-1.3-3.5-5.4-3.5H7.6v7zM56.3 33.7H44.6c-3.6 0-6.8-.2-10.1-2.9-3.4-2.7-5-6.9-5-12.8 0-11.4 4.9-16.8 15.3-16.8h11.5v6.5H44.9c-4.3 0-6.6 2-6.9 6.4h18.3v6.4H37.9c.2 4.9 2.1 6.8 7 6.8h11.4v6.4zM92.2 33.7h-8.4l-.1-.3-2.8-7.2h-13l-2.7 7.2-.1.3H57l.3-.7L70.6 1.6l.1-.3h7.6l.1.3L91.9 33l.3.7zM70.4 19.6h8L74.3 9.3l-3.9 10.3zM114.5 33.7h-8.9c-4.4 0-7.7-.2-10.7-3.4-2.5-2.6-3-5.5-3-9.8V1.3h7.6v18.9c0 2.6.1 4.3 1 5.4 1.3 1.6 3.2 1.9 5.7 1.9h8.3v6.2z"/><g><path class="st1" d="M301.5 33.6v-18l9 18h9.5V1.3h-9.9v13.4l-8.8-13.4h-9.8v32.3zM243.4 12.4v21.3h9V1.3h-12.3l-4.9 15.9-4.8-15.9H218v32.3h8.5V12.4l5.6 21.2h6zM285.2 1.3H259v32.3h26.4v-7.7H269v-5.1h13.6v-7.2H269V8.8h16.2zM199.9 1.3v23.8h12.2v8.5h-22.2V1.3zM182.7 7.1c-3.1-4.3-7.5-6.3-13-6.4-5.6 0-10.6 2.5-13.4 6.4 0 0-2.9 3.7-2.9 9.7 0 9.3 3.6 12.2 3.6 12.2 3.3 3.8 7 5.1 11.8 5.2 5.2.1 9.8-1.9 12.7-5.1 0 0 3.9-3.9 3.9-11.8.1-6.6-2.7-10.2-2.7-10.2zM174 23.8c-1.1 1.7-2.8 2.8-4.7 2.7-1.8 0-3.2-.8-4.4-2.8 0 0-1.3-1.6-1.3-6.6 0-3.3 1.1-5.3 1.1-5.3 1-2.1 2.9-3.5 5-3.5 2 0 3.7 1.1 4.9 3.4 0 0 1 1.9 1 5.6-.2 4.5-1.6 6.5-1.6 6.5zM146.5 7.1c-3.1-4.3-7.9-5.8-13-5.8h-14.2v32.4h12.9c5.2.2 10.2-1.7 13-4.9 0 0 4-3.4 4-11.4.1-6.7-2.7-10.3-2.7-10.3zm-10.8 17.3s-2 1.9-6.1 1.1V10s7-1.7 8.8 4.9c0 0 1.6 6.8-2.7 9.5z"/></g></svg>