<?xml version="1.0" encoding="utf-8"?>
<!-- Generator: Adobe Illustrator 19.2.1, SVG Export Plug-In . SVG Version: 6.00 Build 0)  -->
<svg version="1.1" id="_x35_5e6b238-2f88-4f66-b155-9268929ece4f"
	 xmlns="http://www.w3.org/2000/svg" xmlns:xlink="http://www.w3.org/1999/xlink" x="0px" y="0px" viewBox="0 0 366.6 279.7"
	 style="enable-background:new 0 0 366.6 279.7;" xml:space="preserve">
<style type="text/css">
	.st0{fill:#F9A21B;}
	.st1{fill:#FFCD40;}
	.st2{fill:#F37621;}
	.st3{opacity:0.7;}
	.st4{fill:#333843;}
	.st5{fill:#333843;stroke:#333843;stroke-width:0.5;stroke-miterlimit:10;}
	.st6{opacity:0.6;}
</style>
<title>logo_vertical_stackandheap</title>
<path class="st0" d="M173.9,13.9c20.9,0,41.2,6.3,58.4,18.1c1.8,1.2,13.2,9.8,17.3,12.9h23L245.2,24l-1.7-1.2l0,0l-0.2-0.2
	c-41.3-30.2-97.3-30.2-138.6,0l-1.3,1l0,0L94,30.7h23.6C134.3,19.7,153.9,13.9,173.9,13.9z"/>
<path class="st0" d="M242.8,50.1l-9.7-7.3c-2.8-2.2-5.6-4.2-8.6-6.1c-30.6-19.2-69.5-19.4-100.3-0.5l12,9.1
	c27.9-14.4,61.6-11.7,86.8,7.1l8.4,6.3L250,73h23L242.8,50.1z"/>
<polygon class="st0" points="93.6,58.8 116.5,58.8 123.7,53.3 112.3,44.6 "/>
<polygon class="st1" points="249.6,44.9 249.6,44.9 173.9,102.3 173.9,119.7 272.6,44.8 "/>
<polygon class="st1" points="250,72.9 173.9,130.7 173.9,148.1 273,72.9 "/>
<path class="st2" d="M136.2,45.4l-12-9.1l-7.1-5.4l0.3-0.2H93.9l18.4,13.9l11.4,8.7l50.2,38.1V74L136.2,45.4z"/>
<polygon class="st2" points="93.6,58.8 173.9,119.7 173.9,102.3 116.5,58.8 "/>
<polygon class="st2" points="93.2,86.9 173.9,148.1 173.9,130.7 104.7,78.2 "/>
<g class="st3">
	<path class="st4" d="M20.6,274.3h-2.2v-14.1l-7.4,14.1H9.6l-7.4-14.1v14.1H0v-19.2h2l8.4,15.8l8.4-15.8h2L20.6,274.3L20.6,274.3z"
		/>
	<path class="st4" d="M39.1,274.3h-2.2V272c-1.3,1.7-3.4,2.7-5.6,2.6c-1.9,0-3.7-0.7-5-2.1c-2.8-3-2.8-7.7,0-10.7
		c1.3-1.4,3.1-2.1,5-2.1c2.2-0.1,4.3,0.9,5.6,2.6v-2.3h2.2V274.3L39.1,274.3z M35.3,271.2c2.1-2.2,2.1-5.7,0-7.9c-2.1-2-5.4-2-7.4,0
		c-2,2.3-2,5.7,0,7.9C30,273.2,33.3,273.2,35.3,271.2L35.3,271.2z"/>
	<path class="st4" d="M54.8,274.3l-7.6-6.2h-0.9v6.2h-2.2v-20.6h2.2v12.2h1.1l6.8-5.7H57l-8,6.8l8.9,7.3L54.8,274.3L54.8,274.3z"/>
	<path class="st4" d="M62.9,254.9c0.6,0.6,0.6,1.5,0,2.1c0,0,0,0,0,0c-0.3,0.3-0.7,0.4-1.1,0.4c-0.4,0-0.8-0.1-1.1-0.4
		c-0.6-0.6-0.6-1.5,0-2.1c0.3-0.3,0.7-0.4,1.1-0.4C62.2,254.4,62.6,254.6,62.9,254.9z M60.7,274.3v-14.1h2.2v14.1H60.7z"/>
	<path class="st4" d="M79.8,261.5c1.1,1.2,1.6,2.8,1.6,4.3v8.4h-2.2v-8c0.1-1.2-0.3-2.3-1.1-3.2c-0.7-0.8-1.8-1.2-2.8-1.2
		c-1.4-0.1-2.7,0.5-3.6,1.5c-0.9,1.2-1.4,2.7-1.3,4.2v6.8h-2.2v-14.1h2.2v2.3c1.2-1.8,3.2-2.8,5.3-2.7
		C77.2,259.8,78.7,260.4,79.8,261.5z"/>
	<path class="st4" d="M99.1,273.1c0.1,1.8-0.6,3.6-1.9,4.8c-1.4,1.2-3.3,1.9-5.1,1.8c-3.4,0-5.7-1.2-6.9-3.7l1.8-1.3
		c0.4,0.9,1.1,1.7,2,2.2c0.9,0.5,2,0.8,3.1,0.7c1.3,0.1,2.6-0.4,3.6-1.3c0.9-0.9,1.4-2.2,1.4-3.6v-1.7c-1.3,1.6-3.3,2.5-5.3,2.3
		c-1.8,0-3.6-0.7-4.9-1.9c-1.3-1.3-2.1-3-2-4.9c-0.1-1.8,0.7-3.6,2-4.9c1.3-1.3,3.1-2,4.9-1.9c2-0.1,4,0.7,5.3,2.3v-1.9h2.1
		L99.1,273.1z M95.5,270.1c1-0.9,1.5-2.2,1.5-3.6c0-1.3-0.5-2.6-1.5-3.5c-1-0.9-2.2-1.4-3.5-1.4c-1.4,0-2.7,0.4-3.7,1.3
		c-1,0.9-1.5,2.2-1.5,3.5c0,1.3,0.5,2.6,1.5,3.6c1,0.9,2.3,1.4,3.7,1.4C93.3,271.5,94.6,271.1,95.5,270.1L95.5,270.1z"/>
	<path class="st4" d="M122.6,264.5c1.1,0.1,2,0.6,2.8,1.4c0.8,0.9,1.1,2,1.1,3.1c0.1,1.4-0.5,2.8-1.6,3.8c-1.2,1-2.8,1.5-4.4,1.4
		h-9.2v-19.2h8.8c1.5-0.1,3,0.4,4.2,1.4c1,0.9,1.6,2.3,1.5,3.7c0,1.1-0.3,2.1-1,2.9C124.3,263.8,123.5,264.3,122.6,264.5
		L122.6,264.5L122.6,264.5z M113.6,263.7h6.5c1,0,1.9-0.3,2.6-0.9c0.7-0.7,1-1.6,1-2.5c0-0.9-0.3-1.7-1-2.3
		c-0.8-0.6-1.7-0.9-2.7-0.9h-6.4L113.6,263.7L113.6,263.7z M120.3,272.3c1,0.1,2-0.3,2.8-0.9c0.7-0.7,1.1-1.6,1-2.5
		c0-0.9-0.4-1.8-1.1-2.4c-0.8-0.6-1.8-1-2.8-0.9h-6.8v6.8H120.3L120.3,272.3z"/>
	<path class="st4" d="M143.4,267.7h-12.1c0,1.4,0.6,2.7,1.6,3.7c2.1,1.9,5.3,1.8,7.3-0.2c0.4-0.4,0.7-0.9,0.9-1.4l1.9,0.5
		c-0.5,1.4-1.4,2.5-2.6,3.3c-1.2,0.8-2.7,1.2-4.2,1.2c-1.9,0-3.7-0.7-5-2.1c-2.9-2.9-3-7.6-0.1-10.5c1.4-1.4,3.3-2.2,5.3-2.2
		c1.8,0,3.6,0.7,4.9,2c1.3,1.4,2.1,3.2,2.1,5.1L143.4,267.7L143.4,267.7z M133.1,262.9c-1,0.8-1.6,1.9-1.8,3.1h9.8
		c-0.1-1.2-0.7-2.3-1.6-3.2c-0.9-0.7-2-1.2-3.1-1.1C135.2,261.7,134.1,262.1,133.1,262.9L133.1,262.9z"/>
	<path class="st4" d="M160.5,274.3h-2.1V272c-1.3,1.7-3.4,2.7-5.6,2.6c-1.9,0-3.7-0.7-5-2.1c-2.8-3-2.8-7.7,0-10.7
		c1.3-1.4,3.1-2.1,5-2.1c2.2-0.1,4.3,0.9,5.6,2.6v-2.3h2.2L160.5,274.3L160.5,274.3z M156.7,271.2c2.1-2.2,2.1-5.7,0-7.9
		c-2.1-2-5.4-2-7.4,0c-2,2.3-2,5.7,0,7.9C151.4,273.2,154.7,273.2,156.7,271.2L156.7,271.2z"/>
	<path class="st4" d="M178.4,274.2h-2.2V272c-1.2,1.8-3.2,2.8-5.3,2.7c-1.5,0.1-3-0.5-4.1-1.7c-1.1-1.2-1.6-2.8-1.6-4.3v-8.4h2.2v8
		c-0.1,1.2,0.3,2.3,1.1,3.2c0.7,0.8,1.7,1.2,2.8,1.2c1.3,0.1,2.7-0.5,3.6-1.5c0.9-1.2,1.4-2.7,1.3-4.2v-6.8h2.2V274.2L178.4,274.2z"
		/>
	<path class="st4" d="M191.8,273.5c-0.9,0.7-2.1,1.1-3.3,1.1c-1.3,0.1-2.5-0.4-3.4-1.2c-0.9-1-1.3-2.2-1.3-3.5V262h-3.1v-1.8h3.1
		v-4.5h2.2v4.5h5v1.8h-5v7.7c0,0.8,0.2,1.5,0.7,2.1c0.5,0.5,1.2,0.8,1.9,0.8c0.9,0,1.7-0.3,2.4-0.9L191.8,273.5z"/>
	<path class="st4" d="M197,254.9c0.6,0.6,0.6,1.5,0,2.1c0,0,0,0,0,0c-0.3,0.3-0.7,0.4-1.1,0.4c-0.4,0-0.8-0.1-1.1-0.4
		c-0.6-0.6-0.6-1.5,0-2.1c0.3-0.3,0.7-0.4,1.1-0.4C196.3,254.4,196.7,254.6,197,254.9z M194.9,274.3v-14.1h2.2v14.1H194.9z"/>
	<path class="st4" d="M205,262v12.3h-2.2V262h-2.5v-1.8h2.5v-2.1c-0.1-1.3,0.4-2.6,1.3-3.6c0.9-0.9,2.2-1.4,3.5-1.3
		c0.8,0,1.6,0.2,2.3,0.5l-0.5,1.8c-0.5-0.2-1.1-0.3-1.6-0.3c-0.7,0-1.5,0.3-2,0.8c-0.5,0.6-0.8,1.3-0.8,2.1v2.1h5.1v1.8L205,262
		L205,262z"/>
	<path class="st4" d="M225.4,274.2h-2.2V272c-1.2,1.8-3.2,2.8-5.3,2.7c-1.5,0.1-3-0.5-4.1-1.7c-1.1-1.2-1.6-2.7-1.6-4.4v-8.4h2.2v8
		c-0.1,1.2,0.3,2.3,1.1,3.2c0.7,0.8,1.7,1.2,2.8,1.2c1.3,0.1,2.7-0.5,3.6-1.5c0.9-1.2,1.4-2.7,1.3-4.2v-6.8h2.2V274.2L225.4,274.2z"
		/>
	<path class="st4" d="M230.4,274.3v-20.6h2.2v20.6H230.4z"/>
	<path class="st4" d="M255.9,256.2c1.3,0.9,2.2,2.3,2.5,3.8l-2.3,0.5c-0.2-1.1-0.8-2.1-1.7-2.8c-1-0.7-2.1-1-3.3-1
		c-1.1,0-2.2,0.3-3.1,1c-0.8,0.6-1.2,1.5-1.2,2.5c0,0.7,0.2,1.4,0.7,1.9c0.6,0.5,1.4,0.9,2.2,1l4.2,0.9c3.2,0.7,4.8,2.3,4.8,5
		c0.1,1.6-0.7,3.2-1.9,4.2c-1.5,1.1-3.3,1.6-5.2,1.5c-1.9,0.1-3.7-0.5-5.3-1.5c-1.4-1-2.3-2.5-2.5-4.2l2.4-0.5
		c0.2,1.2,0.8,2.4,1.8,3.1c1.1,0.8,2.4,1.1,3.8,1.1c1.2,0.1,2.4-0.3,3.4-1c0.8-0.6,1.3-1.6,1.2-2.6c0.1-0.7-0.2-1.5-0.7-2
		c-0.7-0.5-1.5-0.9-2.4-1l-4.3-0.9c-3.1-0.7-4.6-2.3-4.6-4.9c-0.1-1.6,0.6-3,1.9-4c1.4-1.1,3.2-1.6,4.9-1.5
		C252.8,254.7,254.5,255.2,255.9,256.2z"/>
	<path class="st4" d="M274.2,261.9c1.4,1.4,2.2,3.3,2.2,5.3c0.1,2-0.7,3.9-2.2,5.3c-3,2.8-7.6,2.8-10.6,0c-1.4-1.4-2.2-3.3-2.2-5.3
		c-0.1-2,0.7-3.9,2.2-5.3C266.6,259.2,271.2,259.2,274.2,261.9z M272.6,271.1c1-1,1.6-2.5,1.6-4c0-1.5-0.5-2.9-1.6-3.9
		c-1-1-2.4-1.6-3.8-1.5c-3,0-5.5,2.5-5.5,5.5c0,3,2.4,5.4,5.5,5.5C270.3,272.7,271.7,272.2,272.6,271.1L272.6,271.1z"/>
	<path class="st4" d="M282.6,262v12.3h-2.2V262H278v-1.8h2.5v-2.1c-0.1-1.3,0.4-2.6,1.3-3.6c0.9-0.9,2.2-1.4,3.5-1.3
		c0.8,0,1.6,0.2,2.3,0.5l-0.5,1.8c-0.5-0.2-1.1-0.3-1.6-0.3c-0.7,0-1.5,0.3-2,0.8c-0.5,0.6-0.8,1.3-0.8,2.1v2.1h5.1v1.8L282.6,262
		L282.6,262z"/>
	<path class="st4" d="M299.1,273.5c-0.9,0.7-2.1,1.1-3.3,1.1c-1.3,0.1-2.5-0.4-3.4-1.2c-0.9-1-1.3-2.2-1.3-3.5V262h-3.1v-1.8h3.1
		v-4.5h2.2v4.5h5v1.8h-5v7.7c0,0.8,0.2,1.5,0.7,2.1c0.5,0.5,1.2,0.8,1.9,0.8c0.9,0,1.7-0.3,2.4-0.9L299.1,273.5z"/>
	<path class="st4" d="M316.2,274.3h-2l-3.7-10.7l-3.7,10.7h-2l-4.8-14.2h2.2l3.6,10.9l3.8-10.9h1.7l3.8,10.9l3.6-10.9h2.2
		L316.2,274.3z"/>
	<path class="st4" d="M337.2,274.3h-2.2V272c-1.3,1.7-3.4,2.7-5.6,2.6c-1.9,0-3.7-0.7-5-2.1c-2.8-3-2.8-7.7,0-10.7
		c1.3-1.4,3.1-2.1,5-2.1c2.2-0.1,4.3,0.9,5.6,2.6v-2.3h2.2L337.2,274.3L337.2,274.3z M333.5,271.2c2.1-2.2,2.1-5.7,0-7.9
		c-2.1-2-5.4-2-7.4,0c-2,2.3-2,5.7,0,7.9C328.1,273.2,331.4,273.2,333.5,271.2L333.5,271.2z"/>
	<path class="st4" d="M351.1,260.1l-0.2,2.1c-0.3,0-0.6,0-0.8,0c-1.6-0.1-3.2,0.6-4.2,1.8c-1,1.4-1.6,3.1-1.5,4.8v5.4h-2.2v-14.1
		h2.2v3.4c1-2.2,3.2-3.6,5.7-3.6C350.5,260,350.8,260,351.1,260.1z"/>
	<path class="st4" d="M366.6,267.7h-12.1c0,1.4,0.6,2.7,1.6,3.7c2.1,1.9,5.3,1.8,7.3-0.2c0.4-0.4,0.7-0.9,0.9-1.4l1.9,0.5
		c-0.5,1.4-1.4,2.5-2.6,3.3c-1.2,0.8-2.7,1.2-4.2,1.2c-1.9,0-3.7-0.7-5-2.1c-2.9-2.9-3-7.6-0.1-10.5c1.4-1.4,3.3-2.2,5.3-2.2
		c1.8,0,3.6,0.7,4.8,2c1.3,1.4,2.1,3.2,2.1,5.1L366.6,267.7L366.6,267.7z M356.4,262.9c-1,0.8-1.6,1.9-1.8,3.1h9.8
		c-0.1-1.2-0.7-2.3-1.6-3.2c-0.9-0.7-2-1.2-3.1-1.1C358.4,261.7,357.3,262.1,356.4,262.9z"/>
</g>
<g>
	<path class="st5" d="M70.5,194.7c2,1.5,3.3,3.5,3.8,6l-3.5,0.8c-0.3-1.8-1.2-3.3-2.6-4.3c-1.4-1.1-3.1-1.6-5.2-1.6
		c-2,0-3.7,0.5-4.9,1.5c-1.3,1-1.9,2.3-1.9,3.9c0,1.3,0.4,2.3,1.1,3c0.8,0.7,1.9,1.2,3.4,1.5l6.5,1.5c5,1.1,7.6,3.7,7.6,7.8
		c0,2.7-1,4.9-3,6.5c-2,1.6-4.7,2.4-8.1,2.4c-3.3,0-6-0.8-8.3-2.4c-2.3-1.6-3.6-3.8-3.9-6.6l3.7-0.8c0.3,2.1,1.3,3.7,2.9,4.9
		c1.6,1.1,3.6,1.7,5.9,1.7c2.3,0,4.1-0.5,5.4-1.5c1.3-1,1.9-2.4,1.9-4.1c0-1.4-0.4-2.4-1.1-3.1c-0.8-0.7-2-1.2-3.7-1.6l-6.8-1.5
		c-4.8-1.1-7.2-3.6-7.2-7.7c0-2.6,1-4.6,2.9-6.2c2-1.6,4.5-2.4,7.7-2.4C66,192.5,68.5,193.2,70.5,194.7z"/>
	<path class="st5" d="M93.9,221.9c-1.7,1.2-3.4,1.7-5.1,1.7c-2.2,0-4-0.6-5.3-1.9c-1.3-1.3-2-3.1-2-5.5v-12.3h-4.8V201h4.8v-7H85v7
		h7.9v2.9H85V216c0,1.4,0.4,2.5,1.1,3.3c0.7,0.8,1.7,1.2,3,1.2s2.5-0.4,3.8-1.3L93.9,221.9z"/>
	<path class="st5" d="M118.6,223.1h-3.4v-3.5c-2.1,2.7-5,4.1-8.8,4.1c-3,0-5.6-1.1-7.8-3.2c-2.2-2.2-3.2-4.9-3.2-8.4
		c0-3.4,1.1-6.2,3.2-8.4c2.2-2.2,4.8-3.2,7.8-3.2c3.8,0,6.7,1.4,8.8,4.1V201h3.4V223.1z M112.7,218.2c1.7-1.6,2.5-3.6,2.5-6.2
		c0-2.5-0.8-4.6-2.5-6.2s-3.6-2.4-5.8-2.4c-2.3,0-4.3,0.8-5.9,2.4c-1.6,1.6-2.4,3.7-2.4,6.2c0,2.6,0.8,4.6,2.4,6.2
		c1.6,1.6,3.5,2.4,5.9,2.4C109.1,220.6,111,219.8,112.7,218.2z"/>
	<path class="st5" d="M138.9,219.2c1.3-0.9,2.2-2.1,2.8-3.7l3.1,0.9c-0.6,2.2-1.9,4-3.8,5.3c-1.9,1.3-4.1,2-6.6,2
		c-3.2,0-5.9-1.1-8.1-3.2c-2.2-2.1-3.4-4.9-3.4-8.4c0-3.4,1.1-6.2,3.4-8.4c2.2-2.2,5-3.2,8.1-3.2c2.4,0,4.6,0.7,6.6,2
		c1.9,1.3,3.2,3.1,3.9,5.4l-3.3,1c-0.5-1.6-1.4-2.9-2.7-3.8c-1.3-0.9-2.8-1.4-4.5-1.4c-2.3,0-4.2,0.8-5.8,2.4
		c-1.6,1.6-2.4,3.6-2.4,6.1c0,2.5,0.8,4.5,2.4,6.1c1.6,1.6,3.5,2.3,5.8,2.3C136.1,220.5,137.6,220.1,138.9,219.2z"/>
	<path class="st5" d="M166.3,223.1l-11.9-9.8h-1.5v9.8h-3.4v-32.2h3.4V210h1.7l10.6-9h4.4l-12.5,10.7l14,11.4H166.3z"/>
</g>
<g class="st6">
	<path class="st5" d="M192.9,220.8c-1.8,2-4.2,2.9-7.1,2.9c-2.5,0-4.5-0.6-6-1.8c-1.5-1.2-2.3-2.8-2.3-4.8c0-1.3,0.4-2.5,1.2-3.5
		c0.8-1,1.8-1.9,3.1-2.5c-1.3-1.5-1.9-3-1.9-4.6c0-1.7,0.6-3.1,1.8-4.2c1.2-1.1,2.7-1.6,4.6-1.6c1.8,0,3.3,0.5,4.4,1.6
		c1.1,1,1.8,2.5,2.1,4.3l-2.4,0.5c-0.1-1.4-0.6-2.5-1.3-3.1c-0.7-0.7-1.7-1-2.8-1c-1.2,0-2.1,0.3-2.8,1c-0.7,0.7-1.1,1.6-1.1,2.7
		c0,1,0.4,2,1.1,2.9c0.7,0.9,2,2.1,3.7,3.6l5.2,4.4c0.5-1.2,0.8-2.5,0.8-3.9v-1.4h2.3v1.4c0,2.1-0.4,3.9-1.3,5.5l3.9,3.3l-1.5,1.8
		L192.9,220.8z M191.1,219.3l-5.9-5l-2-1.7c-1,0.5-1.8,1.1-2.4,1.9c-0.6,0.8-0.9,1.6-0.9,2.6c0,1.3,0.5,2.4,1.6,3.2
		c1.1,0.8,2.4,1.2,4.2,1.2C187.9,221.6,189.6,220.8,191.1,219.3z"/>
</g>
<g>
	<path class="st5" d="M231.6,223.1h-3.5v-13.5h-18v13.5h-3.5v-30h3.5v13.3h18v-13.3h3.5V223.1z"/>
	<path class="st5" d="M258,212.7h-18.9c0.1,2.4,1,4.3,2.6,5.8c1.6,1.4,3.3,2.2,5.3,2.2c3.6,0,6.1-1.6,7.5-4.7l3,0.7
		c-0.9,2.3-2.2,4-4.1,5.2c-1.8,1.2-4,1.8-6.5,1.8c-3,0-5.7-1.1-7.9-3.2c-2.2-2.1-3.3-4.9-3.3-8.3c0-3.4,1.1-6.2,3.4-8.4
		c2.2-2.2,4.9-3.2,8.1-3.2c3,0,5.5,1,7.6,3.1c2,2,3.1,4.7,3.2,7.9V212.7z M242,205.3c-1.5,1.2-2.5,2.8-2.8,4.9h15.4
		c-0.3-2.1-1.1-3.8-2.5-4.9c-1.4-1.2-3-1.8-4.9-1.8C245.3,203.5,243.6,204.1,242,205.3z"/>
	<path class="st5" d="M284.9,223.1h-3.4v-3.5c-2.1,2.7-5,4.1-8.8,4.1c-3,0-5.6-1.1-7.8-3.2c-2.2-2.2-3.2-4.9-3.2-8.4
		c0-3.4,1.1-6.2,3.2-8.4c2.2-2.2,4.8-3.2,7.8-3.2c3.8,0,6.7,1.4,8.8,4.1V201h3.4V223.1z M279,218.2c1.7-1.6,2.5-3.6,2.5-6.2
		c0-2.5-0.8-4.6-2.5-6.2c-1.7-1.6-3.6-2.4-5.8-2.4c-2.3,0-4.3,0.8-5.9,2.4c-1.6,1.6-2.4,3.7-2.4,6.2c0,2.6,0.8,4.6,2.4,6.2
		c1.6,1.6,3.5,2.4,5.9,2.4C275.4,220.6,277.3,219.8,279,218.2z"/>
	<path class="st5" d="M309.4,203.7c2.2,2.2,3.2,4.9,3.2,8.4c0,3.4-1.1,6.2-3.2,8.4c-2.2,2.2-4.8,3.2-7.8,3.2c-3.8,0-6.7-1.4-8.8-4.1
		v11.1h-3.4V201h3.4v3.5c2.1-2.7,5-4.1,8.8-4.1C304.7,200.5,307.3,201.6,309.4,203.7z M307,218.3c1.6-1.6,2.4-3.6,2.4-6.2
		c0-2.6-0.8-4.6-2.4-6.2c-1.6-1.6-3.5-2.4-5.9-2.4c-2.2,0-4.1,0.8-5.8,2.4c-1.7,1.6-2.5,3.7-2.5,6.2c0,2.5,0.8,4.6,2.5,6.2
		c1.7,1.6,3.6,2.4,5.8,2.4C303.5,220.6,305.4,219.8,307,218.3z"/>
</g>
</svg>
