<?xml version="1.0" encoding="utf-8"?>
<!-- Generator: Adobe Illustrator 19.1.0, SVG Export Plug-In . SVG Version: 6.00 Build 0)  -->
<svg version="1.1" id="Layer_1" xmlns="http://www.w3.org/2000/svg" xmlns:xlink="http://www.w3.org/1999/xlink" x="0px" y="0px"
	 viewBox="0 0 453.5 453.5" style="enable-background:new 0 0 453.5 453.5;" xml:space="preserve">
<style type="text/css">
	.st0{fill:#0980AC;}
	.st1{fill:#E6C712;}
	.st2{fill:#0F6C8F;}
	.st3{fill:#3FAEC1;}
	.st4{fill:#52BADF;}
	.st5{fill:#2B3B45;}
</style>
<g>
	<polygon class="st0" points="14.6,197.5 57.1,197.5 103.9,290.6 61.4,290.6 	"/>
	<polygon class="st1" points="176.2,163 144.3,226.8 186.8,226.8 218.7,163 	"/>
	<polygon class="st2" points="103.9,290.6 57.1,197.5 61.4,290.6 	"/>
	<polygon class="st3" points="103.9,290.6 61.4,290.6 93.3,226.8 61.4,163 103.9,163 135.8,226.8 	"/>
	<polygon class="st4" points="103.9,163 135.8,226.8 93.3,226.8 61.4,163 	"/>
	<g>
		<path class="st5" d="M223.6,222c0-0.7,0.4-1.3,1.3-1.9c0.9-0.5,1.8-0.8,2.7-0.8c1,0,1.6,0.4,1.9,1.1l6.7,18.7l5.1-16.6
			c0.3-0.9,1-1.4,2.2-1.4c1.2,0,1.9,0.5,2.2,1.4l5,16.7l6.7-18.8c0.2-0.8,0.9-1.1,1.9-1.1c0.9,0,1.8,0.3,2.7,0.8
			c0.9,0.5,1.4,1.2,1.4,1.9c0,0.3-0.1,0.6-0.2,1l-9.3,24.4c-0.3,0.8-1.2,1.3-2.5,1.3c-1.4,0-2.2-0.4-2.6-1.2l-5.2-15.5l-5.2,15.3
			c-0.4,0.9-1.3,1.4-2.7,1.4c-1.3,0-2.2-0.5-2.5-1.4l-9.3-24.3C223.7,222.5,223.6,222.2,223.6,222z"/>
		<path class="st5" d="M271,236.6v-5.7c0-3.2,1.2-5.9,3.7-8.2c2.4-2.3,5.4-3.4,8.8-3.4c3.3,0,6.1,1,8.4,3.1c2.3,2.1,3.5,4.7,3.5,7.9
			c0,1.2-0.1,2.2-0.4,3c-0.3,0.8-0.7,1.3-1.3,1.6c-0.6,0.3-1.2,0.5-1.7,0.6c-0.5,0.1-1.2,0.1-2,0.1h-12.7v1.4c0,2,0.7,3.6,2.2,4.8
			c1.4,1.2,3.3,1.8,5.6,1.8c1.6,0,3.2-0.4,4.7-1.1c1.5-0.8,2.3-1.1,2.7-1.1c0.7,0,1.3,0.3,1.7,1c0.5,0.6,0.7,1.3,0.7,1.9
			c0,1-1,2-2.9,3c-1.9,1-4.3,1.5-7.1,1.5c-4.1,0-7.4-1.1-10-3.3C272.3,243,271,240.1,271,236.6z M277.3,231.5h10
			c0.9,0,1.5-0.1,1.8-0.4c0.3-0.2,0.5-0.7,0.5-1.4c0-1.6-0.6-2.9-1.7-4c-1.2-1.1-2.6-1.7-4.3-1.7c-1.7,0-3.1,0.5-4.3,1.6
			c-1.2,1-1.8,2.4-1.8,4V231.5z"/>
		<path class="st5" d="M307,245.9v-37.3c0-0.6,0.3-1.1,0.8-1.5c0.6-0.4,1.3-0.6,2.2-0.6c0.9,0,1.7,0.2,2.3,0.6
			c0.6,0.4,0.9,0.9,0.9,1.5v15.2c0.7-1.3,1.7-2.4,3.1-3.3c1.4-0.9,2.9-1.3,4.7-1.3c3,0,5.5,1.2,7.6,3.5c2.1,2.3,3.1,5.1,3.1,8.3v5.5
			c0,3.1-1.1,5.9-3.2,8.3c-2.1,2.4-4.6,3.6-7.4,3.6c-1.8,0-3.5-0.5-5-1.4c-1.5-0.9-2.6-2-3.3-3.3v2.1c0,0.5-0.3,1-0.9,1.5
			c-0.6,0.4-1.2,0.7-2,0.7c-0.9,0-1.6-0.2-2.2-0.7C307.3,246.9,307,246.5,307,245.9z M313.3,237.9c0,0.9,0.6,1.9,1.9,3.1
			c1.3,1.2,2.7,1.8,4.2,1.8c1.6,0,3.1-0.6,4.3-1.9c1.2-1.3,1.8-2.8,1.8-4.4v-5.5c0-1.6-0.6-3-1.8-4.3c-1.2-1.3-2.7-1.9-4.3-1.9
			c-1.6,0-3,0.6-4.2,1.7c-1.2,1.2-1.9,2.6-1.9,4.5V237.9z"/>
		<path class="st5" d="M343.7,238.7v-30.1c0-0.6,0.3-1,1-1.4c0.6-0.4,1.4-0.6,2.2-0.6c0.8,0,1.5,0.2,2.2,0.6c0.7,0.4,1,0.9,1,1.4v11
			h7.3c0.5,0,0.9,0.2,1.3,0.7c0.3,0.5,0.5,1,0.5,1.6c0,0.6-0.2,1.2-0.5,1.6c-0.3,0.5-0.7,0.7-1.3,0.7H350v14.4
			c0,1.4,0.3,2.5,0.9,3.1c0.6,0.6,1.7,0.9,3.3,0.9h2.1c0.8,0,1.5,0.3,2,0.8c0.5,0.5,0.7,1.2,0.7,1.9s-0.2,1.4-0.7,1.9
			c-0.5,0.5-1.1,0.8-2,0.8h-2.1C347.2,248,343.7,244.9,343.7,238.7z"/>
		<path class="st5" d="M369.9,245.9v-24.3c0-0.6,0.3-1.1,0.9-1.5c0.6-0.4,1.3-0.6,2.2-0.6c0.8,0,1.5,0.2,2,0.6
			c0.6,0.4,0.8,0.9,0.8,1.5v2.7c0.7-1.4,1.7-2.6,3.1-3.6c1.4-1,2.9-1.5,4.5-1.5h1.9c0.6,0,1.2,0.3,1.7,0.8c0.5,0.5,0.7,1.2,0.7,2
			c0,0.8-0.2,1.4-0.7,2c-0.5,0.6-1,0.8-1.7,0.8h-1.9c-1.9,0-3.6,0.8-5.1,2.5c-1.5,1.6-2.2,3.8-2.2,6.4v12.3c0,0.5-0.3,1-1,1.4
			c-0.6,0.4-1.4,0.7-2.3,0.7c-0.9,0-1.6-0.2-2.2-0.7C370.2,246.9,369.9,246.5,369.9,245.9z"/>
		<path class="st5" d="M415.5,245.4c0-0.4,0.1-0.8,0.4-1.1l7.4-10.7l-7.1-10.1c-0.3-0.4-0.4-0.7-0.4-1.1c0-0.7,0.5-1.4,1.4-2.1
			c0.9-0.7,1.8-1,2.7-1c0.7,0,1.2,0.2,1.5,0.7l6.1,9.6l6.1-9.5c0.3-0.5,0.8-0.8,1.6-0.8c0.8,0,1.7,0.3,2.6,1c1,0.7,1.4,1.4,1.4,2.1
			c0,0.3-0.1,0.7-0.4,1.1l-7.1,10.1l7.5,10.6c0.3,0.4,0.4,0.7,0.4,1.1c0,0.7-0.5,1.4-1.4,2.1c-0.9,0.7-1.8,1-2.6,1
			c-0.8,0-1.3-0.2-1.6-0.7l-6.5-9.9l-6.5,9.9c-0.4,0.5-0.9,0.7-1.7,0.7c-0.8,0-1.6-0.3-2.5-1C416,246.8,415.5,246.1,415.5,245.4z"/>
		<path class="st5" d="M397.8,209.9c0-0.9,0.4-1.7,1.1-2.3c0.7-0.6,1.6-1,2.6-1c1,0,1.9,0.3,2.6,1c0.7,0.6,1.1,1.4,1.1,2.3
			c0,0.9-0.4,1.7-1.1,2.3c-0.7,0.7-1.6,1-2.6,1c-1,0-1.9-0.3-2.6-1C398.1,211.5,397.8,210.7,397.8,209.9z M398.3,245.9v-24.3
			c0-0.6,0.3-1.1,0.9-1.5c0.6-0.4,1.3-0.6,2.3-0.6c0.9,0,1.7,0.2,2.3,0.6c0.6,0.4,0.9,0.9,0.9,1.5v24.3c0,0.5-0.3,1-0.9,1.4
			c-0.6,0.4-1.4,0.7-2.3,0.7c-0.9,0-1.6-0.2-2.2-0.7C398.6,246.9,398.3,246.5,398.3,245.9z"/>
	</g>
</g>
</svg>
